# xmcd
#
# Track frame offsets:
#	150
#	20812
#	32909
#	57405
#	92387
#	107751
#	121898
#	135484
#	149136
#
# Disc length: 2169 seconds
#
# Revision: 0
# Processed by: cddbd v1.5.2PL0 Copyright (c) Steve Scherf et al.
# Submitted via: EasyCDDAExtractor 16.0.8.2
#
DISCID=7f087709
DTITLE=Γλαφυριώτης Απόστολος - Τραγ. γάμου κ πανηγυριών στο Πήλιο
DYEAR=2003
DGENRE=Παραδοσιακή
TTITLE0=Άνευ ερμηνευτού - Πατινάδα ΡΕ  [πατινάδα γάμου]
TTITLE1=Γλαφυριώτης Απόστολος - Μάννα μου τα λουλούδια μου [του γάμου]
TTITLE2=Άνευ ερμηνευτού - Πατινάδα ΛΑ [πατινάδα γάμου]
TTITLE3=Γλαφυριώτης Απόστολος-Δερβενιώτης Θ. - Αυγερινός-Μπαρμπούνι-Μαύρα μάτι
TTITLE3=α κ.ά. [συρ. γάμου]
TTITLE4=Άνευ ερμηνευτού - Τσανακαλέ [συρτός, οργανικό]
TTITLE5=Γλαφυριώτης Απόστολος - Αχ μελαχροινό μου [συρτός, διασκ. Θ.Δερβενιώτη
TTITLE5=ς]
TTITLE6=Άνευ ερμηνευτού - Βολιώτικος συρτός [οργανικό]
TTITLE7=Γλαφυριώτης Απόστολος - Τα κανάρια [παραδ. συρτός, στ. Θεοχ. Παντίδης]
TTITLE8=Γλαφυριώτης Απόστολος - Δίμιτος [παραδ. σε ρυθμό 7/8]
EXTD=
EXTT0=
EXTT1=
EXTT2=
EXTT3=
EXTT4=
EXTT5=
EXTT6=
EXTT7=
EXTT8=
PLAYORDER=
